<?xml version="1.0" encoding="utf-8"?>
<!-- Svg Vector Icons : http://www.onlinewebfonts.com/icon -->
<!DOCTYPE svg PUBLIC "-//W3C//DTD SVG 1.1//EN" "http://www.w3.org/Graphics/SVG/1.1/DTD/svg11.dtd">
<svg version="1.1" xmlns="http://www.w3.org/2000/svg" xmlns:xlink="http://www.w3.org/1999/xlink" x="0px" y="0px" viewBox="0 0 1000 1000" enable-background="new 0 0 1000 1000" xml:space="preserve">
<metadata> Svg Vector Icons : http://www.onlinewebfonts.com/icon </metadata>
<g><path d="M892.1,596.8H788.8c-32.7-0.1-59.3-26.9-59.3-60v-5.1c0.1-33.1,26.6-59.9,59.3-60h103.3c32.7,0.1,59.2,26.9,59.3,60l0,5.1C951.3,569.8,924.8,596.7,892.1,596.8L892.1,596.8L892.1,596.8z M892.1,433.3H788.8c-54,0-97.9,44.1-97.9,98.4v5.1c0,54.2,43.9,98.4,97.9,98.4h103.3c54,0,97.9-44.1,97.9-98.4v-5.1C990,477.5,946.1,433.4,892.1,433.3L892.1,433.3L892.1,433.3z"/><path d="M158.5,636.1c0.1,0,0.2,0,0.4,0c20.2,0.1,36.4-9.1,51.1-30.2l93.1-137c2.4-3.6,3.6-7.6,3.6-11.7c0-6.5-3.1-13-8.8-17c-3.5-2.4-7.6-3.6-11.5-3.6c-6.5,0-12.9,3.1-16.9,8.9l-93.1,137c-5.7,8.7-11.9,12.3-17.9,12.3c-0.1,0-0.1,0-0.1,0c-7.1-0.1-12.3-3.9-18-12.3l-93.1-137c-3.9-5.8-10.3-8.9-16.8-8.9c-4,0-8,1.2-11.6,3.6c-5.7,4-8.9,10.4-8.8,17c0,4,1.2,8.1,3.6,11.7l93.1,137C119.6,624.9,138.5,636.1,158.5,636.1L158.5,636.1L158.5,636.1L158.5,636.1z"/><path d="M543.9,636.1c0.1,0,0.2,0,0.4,0c20.2,0.1,36.3-9.1,51.1-30.2l93.2-137c2.4-3.6,3.6-7.6,3.6-11.7c0-6.5-3.1-13-8.8-17c-3.5-2.4-7.6-3.6-11.6-3.6c-6.5,0-12.9,3.1-16.8,8.9l-93.1,137c-5.7,8.7-11.9,12.3-17.9,12.3c-0.2,0-0.2,0-0.2,0c-7.1-0.1-12.3-3.9-18-12.3l-93.1-137c-4-5.8-10.4-8.9-16.9-8.9c-4,0-8,1.2-11.6,3.6c-5.8,4-8.9,10.5-8.9,17c0,4,1.2,8.1,3.6,11.7l93.1,137c12.9,19,31.7,30.2,51.6,30.2L543.9,636.1L543.9,636.1L543.9,636.1z"/><path d="M378.5,387.9l-21.5-21.6c-1.6-1.6-3.6-2.4-5.7-2.4h-0.4c-2.1,0-4.1,0.8-5.7,2.4l-21.5,21.6c-1.6,1.6-2.4,3.8-2.4,5.8c0,2.1,0.8,4.3,2.4,5.9l21.5,21.6c1.6,1.6,3.8,2.4,5.9,2.4c2.1,0,4.2-0.8,5.8-2.4l21.6-21.6c1.6-1.6,2.4-3.7,2.4-5.9C380.9,391.6,380.1,389.5,378.5,387.9L378.5,387.9L378.5,387.9z M351.1,436.6L351.1,436.6c-11.3,0-20.6,9.1-20.6,20.3v158.8c0,11.3,9.2,20.3,20.6,20.3c11.3,0,20.5-9.1,20.5-20.3l0-158.8C371.6,445.7,362.4,436.6,351.1,436.6L351.1,436.6L351.1,436.6z"/></g>
</svg>